{"glyphs":{":":{"x_min":0,"x_max":229,"ha":229,"o":""},"$":{"x_min":0,"x_max":469,"ha":469,"o":"m 110 468 q 110 449 118 435 q 125 421 139 410 q 153 399 171 390 q 190 381 211 373 l 211 544 q 183 543 163 536 q 144 529 132 519 q 120 508 115 494 q 110 481 110 468 z m 355 158 q 355 181 347 199 q 339 216 326 230 q 312 243 294 253 q 275 264 255 272 l 255 55 q 274 58 292 66 q 311 75 324 88 q 338 102 347 119 q 355 137 355 158 z m 255 -70 q 250 -74 247 -76 q 244 -78 241 -80 q 238 -81 234 -82 q 230 -83 224 -85 l 211 -74 l 211 -5 q 188 -4 167 -1 q 147 1 128 8 q 109 14 90 24 q 71 33 50 47 q 46 49 45 63 q 43 77 43 95 q 43 114 44 133 q 46 152 50 166 l 71 164 q 94 114 130 88 q 167 62 211 56 l 211 290 q 181 301 152 313 q 123 325 99 343 q 76 360 62 384 q 48 409 48 445 q 48 465 56 489 q 64 513 83 533 q 102 554 133 570 q 165 585 211 591 l 211 662 q 218 666 221 668 q 224 670 226 671 q 229 672 232 673 q 235 674 242 676 l 255 665 l 255 593 q 277 592 299 589 q 320 586 338 580 q 357 574 372 566 q 386 558 396 549 q 399 545 395 536 q 392 527 385 517 q 378 506 370 496 q 361 486 355 480 l 336 484 q 316 506 296 520 q 275 534 255 540 l 255 355 q 285 344 315 330 q 345 316 368 297 q 392 277 406 250 q 421 223 421 184 q 421 155 410 125 q 400 94 379 68 q 358 42 327 23 q 296 4 255 -2 z"},"?":{"x_min":0,"x_max":433,"ha":433,"o":"m 394 569 q 394 532 382 503 q 371 474 353 448 q 335 423 315 400 q 294 376 276 352 q 258 327 245 299 q 231 271 229 237 l 226 190 q 217 183 210 178 q 203 174 189 170 l 177 180 l 173 237 q 171 265 181 292 q 191 320 207 346 q 222 373 241 399 q 260 425 276 450 q 292 475 303 499 q 313 523 313 547 q 313 607 286 642 q 258 676 207 676 q 189 676 174 668 q 158 660 146 646 q 133 633 126 616 q 119 598 119 579 q 119 572 121 565 q 123 558 125 551 q 109 542 92 539 q 75 535 53 532 l 40 547 q 39 551 39 555 l 39 563 q 39 597 56 626 q 73 656 101 677 q 130 699 167 711 q 204 723 245 723 q 281 723 309 711 q 336 700 355 680 q 374 660 384 631 q 394 603 394 569 z m 263 60 q 263 43 258 29 q 253 14 244 3 q 235 -7 222 -13 q 210 -20 196 -20 q 169 -20 158 -5 q 147 9 147 35 q 147 52 152 66 q 158 81 167 92 q 176 103 189 109 q 201 115 215 115 q 239 115 251 101 q 263 86 263 60 z"},"<":{"x_min":0,"x_max":439,"ha":439,"o":"m 409 157 q 404 152 400 148 q 396 145 391 141 q 386 137 381 133 q 375 129 368 125 l 42 247 l 30 259 q 30 260 30 260 q 30 261 30 262 l 32 266 q 32 267 33 270 l 34 276 l 36 280 q 36 282 36 283 q 37 285 38 287 l 39 291 l 42 299 l 44 305 l 45 307 l 397 439 l 409 427 q 408 421 406 415 q 404 409 402 402 q 400 395 398 389 q 396 382 395 378 l 124 277 l 401 175 z"},"'":{"x_min":0,"x_max":250,"ha":250,"o":"m 151 407 q 147 405 141 403 q 136 401 129 400 q 123 398 116 398 q 110 397 104 397 l 78 696 q 83 699 94 703 q 104 708 115 711 q 126 715 136 719 q 146 722 151 723 l 172 712 z"},"=":{"x_min":0,"x_max":439,"ha":439,"o":"m 409 215 q 407 205 402 194 q 398 183 395 173 l 42 173 l 30 187 q 32 196 36 207 q 41 217 45 227 l 397 227 z m 409 361 q 407 352 402 340 q 398 328 395 320 l 42 320 l 30 332 q 32 342 36 353 q 41 364 45 374 l 397 374 z"},"a":{"x_min":0,"x_max":459,"ha":459,"o":"m 172 49 q 201 49 234 64 q 267 79 304 111 l 304 237 q 263 230 237 224 q 210 218 193 211 q 176 205 166 197 q 155 190 147 182 q 135 168 127 152 q 119 135 119 112 q 119 92 125 80 q 131 68 139 61 q 147 54 156 51 q 166 49 172 49 z m 452 40 q 411 11 384 -2 q 356 -15 343 -15 q 327 -15 316 8 q 305 30 304 70 q 282 48 260 32 q 238 16 217 5 q 196 -5 177 -10 q 159 -15 143 -15 q 125 -15 107 -9 q 88 -3 73 10 q 59 22 49 42 q 39 62 39 91 q 39 128 52 153 q 65 178 83 196 q 95 208 110 218 q 125 229 149 238 q 174 248 211 257 q 248 266 304 274 l 304 343 q 304 359 300 374 q 296 388 287 399 q 278 409 262 415 q 246 420 222 420 q 207 419 191 415 q 176 410 165 401 q 154 392 147 380 q 141 368 143 354 q 143 349 133 344 q 122 338 108 333 q 93 329 79 327 q 65 324 60 326 l 53 345 q 64 369 87 392 q 110 414 139 431 q 169 448 202 458 q 235 469 266 469 q 319 469 348 441 q 377 413 377 362 l 377 87 q 377 66 383 58 q 388 49 397 49 q 404 49 415 51 q 425 54 445 62 z"},"L":{"x_min":0,"x_max":476,"ha":476,"o":"m 461 119 q 457 77 451 45 q 445 14 441 0 l 24 0 l 24 21 q 58 28 76 36 q 95 44 95 51 l 95 564 q 95 570 77 579 q 60 587 24 594 l 24 615 l 244 615 l 244 594 q 211 587 192 579 q 173 571 173 564 l 173 80 q 173 71 177 65 q 182 58 192 53 q 202 49 220 46 q 237 44 264 44 l 334 44 q 356 44 372 46 q 387 49 399 57 q 411 66 420 83 q 430 99 440 128 z"},"3":{"x_min":0,"x_max":469,"ha":469,"o":"m 403 186 q 403 145 390 108 q 376 72 351 44 q 325 17 287 1 q 249 -15 198 -15 q 179 -15 159 -11 q 139 -8 118 1 q 98 9 76 23 q 55 37 33 58 l 50 91 q 72 74 90 63 q 108 53 125 46 q 141 40 157 37 q 173 34 192 34 q 222 34 246 44 q 271 53 288 71 q 306 88 315 114 q 325 139 325 170 q 325 207 313 232 q 302 258 284 274 q 266 290 244 297 q 222 304 200 304 l 190 304 q 187 304 184 304 q 182 303 178 303 q 174 302 167 301 l 160 330 q 205 342 232 358 q 259 375 273 392 q 288 409 292 427 q 297 444 297 459 q 297 476 292 493 q 287 511 276 526 q 265 541 248 550 q 231 559 208 559 q 188 559 173 552 q 158 545 147 534 q 137 522 133 507 q 129 492 132 475 q 115 467 100 462 q 85 458 64 456 l 51 471 q 51 492 66 515 q 81 538 106 558 q 132 577 165 590 q 199 603 236 603 q 272 603 299 591 q 325 580 342 560 q 359 541 367 517 q 375 493 375 468 q 375 449 368 431 q 360 413 347 396 q 333 380 314 366 q 295 352 271 341 q 299 337 323 324 q 347 311 365 290 q 382 269 393 242 q 403 216 403 186 z"},";":{"x_min":0,"x_max":229,"ha":229,"o":""},"J":{"x_min":0,"x_max":305,"ha":305,"o":"m 271 594 q 238 587 219 579 q 200 571 200 564 l 200 100 q 200 42 192 3 q 184 -36 171 -62 q 157 -89 140 -107 q 122 -125 103 -141 q 90 -151 74 -160 q 58 -168 42 -174 q 26 -180 11 -183 q -3 -186 -12 -186 q -27 -186 -42 -181 q -56 -176 -67 -170 q -79 -164 -86 -157 q -93 -151 -93 -146 q -93 -143 -86 -135 q -80 -128 -71 -121 q -62 -113 -53 -107 q -43 -100 -36 -98 q -22 -106 -12 -112 q -2 -118 7 -121 q 16 -124 24 -125 q 32 -125 41 -125 q 54 -125 68 -117 q 83 -109 94 -88 q 106 -66 114 -29 q 122 8 122 65 l 122 564 q 122 567 118 570 q 114 574 104 578 q 93 582 75 586 q 56 590 27 594 l 27 615 l 271 615 z"},"V":{"x_min":0,"x_max":650,"ha":650,"o":"m 630 594 q 597 588 578 582 q 559 576 554 562 l 367 29 q 363 18 354 10 q 344 3 333 -2 q 322 -7 311 -10 q 300 -13 294 -15 l 79 562 q 74 575 57 583 q 41 590 10 594 l 10 615 l 222 615 l 222 594 q 183 591 169 584 q 154 577 160 563 l 332 99 l 496 562 q 501 576 484 583 q 467 589 427 594 l 427 615 l 630 615 z"},"\"":{"x_min":0,"x_max":425,"ha":425,"o":"m 151 407 q 147 405 141 403 q 136 401 129 400 q 123 398 116 398 q 110 397 104 397 l 78 696 q 83 699 94 703 q 104 708 115 711 q 126 715 136 719 q 146 722 151 723 l 172 712 z m 326 407 q 322 405 317 403 q 311 401 304 400 q 298 398 291 398 q 285 397 279 397 l 253 696 q 258 699 268 703 q 278 708 290 711 q 301 715 311 719 q 321 722 326 723 l 347 712 z"},"7":{"x_min":0,"x_max":469,"ha":469,"o":"m 432 570 q 410 517 387 463 q 364 410 342 357 q 320 305 300 256 q 280 207 263 163 q 247 120 233 83 q 219 47 211 21 q 194 9 175 0 q 156 -8 132 -15 l 112 1 q 154 76 188 144 q 222 212 250 276 q 279 339 305 401 q 331 462 358 525 l 136 525 q 129 525 122 524 q 115 524 108 518 q 101 512 92 497 q 83 482 73 454 l 51 463 q 52 474 55 491 q 57 508 60 526 q 63 544 66 561 q 69 578 72 588 l 416 588 z"},"S":{"x_min":0,"x_max":476,"ha":476,"o":"m 432 184 q 432 162 426 139 q 420 116 408 94 q 396 72 379 52 q 361 32 337 18 q 312 3 282 -6 q 251 -15 215 -15 q 199 -15 180 -11 q 161 -8 141 -2 q 121 4 101 13 q 81 22 64 33 q 61 35 59 50 q 57 64 57 84 q 57 104 59 125 q 60 145 64 158 l 84 156 q 95 127 112 106 q 129 85 149 71 q 170 57 194 51 q 217 44 242 44 q 264 44 286 53 q 309 62 326 78 q 344 93 355 114 q 366 135 366 158 q 366 188 353 209 q 340 231 319 248 q 297 264 270 277 q 243 291 214 304 q 186 317 158 332 q 131 346 110 366 q 88 385 75 411 q 62 437 62 472 q 62 487 66 505 q 71 522 81 540 q 90 558 106 574 q 121 590 143 603 q 165 615 193 623 q 221 630 257 630 q 279 630 301 626 q 323 623 343 617 q 362 611 377 603 q 393 595 402 585 q 405 582 402 573 q 399 565 392 555 q 386 545 378 535 q 370 525 364 520 l 346 523 q 333 539 318 550 q 303 561 287 568 q 272 575 257 578 q 242 581 228 581 q 201 581 181 573 q 162 564 150 552 q 137 540 131 524 q 125 509 125 495 q 125 472 139 454 q 152 437 173 422 q 195 407 222 394 q 250 380 279 366 q 308 352 335 335 q 363 318 384 297 q 406 275 419 248 q 432 220 432 184 z"},"}":{"x_min":0,"x_max":336,"ha":336,"o":"m 287 318 q 229 303 200 273 q 171 244 171 206 q 171 186 172 172 q 174 158 176 147 q 178 136 180 126 q 183 116 185 105 q 187 93 188 79 q 190 65 190 45 q 190 12 179 -17 q 168 -46 147 -71 q 127 -96 98 -116 q 68 -137 32 -154 l 19 -130 q 38 -118 54 -103 q 71 -88 83 -70 q 95 -52 102 -30 q 109 -8 109 17 q 109 45 106 63 q 103 81 99 97 q 96 113 93 131 q 90 149 90 178 q 90 198 96 218 q 102 237 113 254 q 125 271 141 285 q 157 299 178 308 q 153 313 136 324 q 120 335 109 352 q 99 369 94 391 q 90 413 90 440 q 90 469 93 490 q 96 510 99 528 q 103 546 106 564 q 109 583 109 606 q 109 634 105 655 q 102 676 92 693 q 83 709 66 723 q 49 737 24 751 l 35 781 q 76 765 106 747 q 135 729 154 706 q 172 684 181 656 q 190 628 190 593 q 190 564 187 545 q 184 526 180 509 q 177 492 174 472 q 171 452 171 422 q 171 383 191 362 q 210 342 247 342 l 256 342 q 259 342 262 342 q 264 342 268 343 l 279 345 z"},"Z":{"x_min":0,"x_max":523,"ha":523,"o":"m 484 143 q 483 127 482 108 q 481 89 481 70 q 480 51 479 32 q 479 14 478 0 l 43 0 l 29 22 l 376 566 l 152 566 q 144 566 135 561 q 125 556 117 544 q 108 532 100 514 q 92 496 87 470 l 59 476 l 73 623 q 86 620 97 618 q 108 617 119 616 q 129 615 141 615 l 467 615 l 479 594 l 135 49 l 390 49 q 400 49 409 53 q 417 58 425 69 q 432 81 440 100 q 448 120 457 150 z"},"x":{"x_min":0,"x_max":503,"ha":503,"o":"m 300 0 l 300 21 q 312 22 323 24 q 333 26 340 30 q 346 35 346 43 q 346 51 336 64 l 239 195 l 147 64 q 138 51 140 43 q 142 35 150 30 q 158 26 171 24 q 183 22 195 21 l 195 0 l 10 0 l 10 21 q 29 24 43 29 q 57 33 66 39 q 76 45 82 52 q 89 60 94 67 l 213 232 l 98 389 q 92 398 85 406 q 79 413 70 419 q 61 424 48 428 q 35 432 15 433 l 15 454 l 220 454 l 220 433 q 205 432 194 429 q 183 426 177 422 q 172 417 173 409 q 173 402 182 390 l 261 282 l 336 390 q 345 402 346 410 q 347 417 342 422 q 336 427 326 429 q 315 432 300 433 l 300 454 l 486 454 l 486 433 q 446 430 425 419 q 403 407 390 389 l 288 245 l 418 67 q 424 60 431 52 q 438 45 447 39 q 456 33 468 28 q 480 23 496 21 l 496 0 z"},")":{"x_min":0,"x_max":317,"ha":317,"o":"m 259 324 q 259 244 243 169 q 227 94 197 31 q 168 -32 127 -80 q 85 -127 35 -154 l 20 -132 q 51 -105 80 -62 q 108 -20 129 37 q 151 94 163 163 q 176 231 176 310 q 176 381 166 448 q 155 516 135 575 q 116 634 87 682 q 58 729 20 759 l 35 781 q 90 756 132 711 q 174 665 202 605 q 230 545 245 473 q 259 402 259 324 z"},"&":{"x_min":0,"x_max":667,"ha":667,"o":"m 217 552 q 217 523 225 492 q 233 461 248 429 q 281 448 302 467 q 323 485 335 503 q 347 521 352 539 q 356 556 356 572 q 356 589 352 604 q 347 619 339 631 q 330 642 317 649 q 304 656 287 656 q 270 656 256 647 q 243 638 234 623 q 226 608 221 590 q 217 571 217 552 z m 258 41 q 299 41 334 54 q 369 67 396 89 q 372 115 346 144 q 320 174 296 206 q 271 239 248 273 q 226 308 208 343 q 183 322 166 302 q 148 282 138 262 q 127 242 123 222 q 118 203 118 182 q 118 148 130 122 q 142 95 161 77 q 181 60 206 50 q 231 41 258 41 z m 657 365 q 645 350 633 340 q 621 330 609 322 q 600 326 589 330 q 578 333 566 336 q 555 338 544 340 q 533 341 525 342 q 530 333 533 325 q 537 318 538 309 q 540 300 541 290 q 541 279 541 265 q 541 230 526 192 q 511 153 483 117 q 517 84 545 62 q 563 46 585 41 q 606 36 635 43 l 639 22 q 597 3 568 -6 q 539 -15 528 -15 q 517 -15 490 5 q 463 24 428 58 q 390 26 343 6 q 296 -15 243 -15 q 198 -15 160 -3 q 123 9 96 33 q 69 56 54 91 q 39 126 39 172 q 39 199 49 228 q 59 256 77 284 q 96 312 123 338 q 150 365 186 390 q 171 425 163 458 q 155 492 155 524 q 155 563 168 597 q 181 631 203 656 q 225 680 254 694 q 282 708 313 708 q 344 708 365 698 q 387 688 400 671 q 413 655 418 633 q 424 611 424 588 q 424 537 392 492 q 360 447 302 411 q 292 405 284 400 q 276 394 268 389 q 285 357 306 325 q 328 293 351 263 q 375 232 400 203 q 425 174 450 149 q 466 173 474 198 q 482 223 482 245 q 482 266 475 284 q 468 302 457 315 q 446 329 432 336 q 418 344 404 344 l 393 358 q 398 364 409 372 q 419 379 429 383 l 646 383 z"},"_":{"x_min":0,"x_max":469,"ha":469,"o":"m 438 -76 q 436 -86 432 -99 q 428 -111 424 -120 l 42 -120 l 30 -107 q 32 -97 36 -85 q 41 -74 45 -64 l 427 -64 z"},"v":{"x_min":0,"x_max":493,"ha":493,"o":"m 483 433 q 468 430 459 427 q 450 424 444 420 q 438 417 435 412 q 432 407 429 400 l 291 29 q 287 18 278 10 q 270 3 260 -2 q 250 -7 241 -10 q 231 -13 225 -15 l 64 400 q 60 414 47 421 q 34 428 10 433 l 10 454 l 198 454 l 198 433 q 179 431 167 428 q 155 426 149 422 q 142 418 141 413 q 140 408 143 400 l 263 87 l 376 400 q 378 407 378 412 q 377 417 371 421 q 365 425 354 427 q 343 430 325 433 l 325 454 l 483 454 z"},"O":{"x_min":0,"x_max":600,"ha":600,"o":"m 480 307 q 480 341 474 374 q 468 407 457 436 q 445 466 429 491 q 413 516 392 534 q 372 553 347 563 q 323 574 295 574 q 251 574 217 555 q 183 537 159 503 q 135 469 123 421 q 110 373 110 313 q 110 258 125 209 q 140 161 165 124 q 190 87 224 65 q 257 44 295 44 q 335 44 369 61 q 403 78 428 111 q 453 144 466 193 q 480 243 480 307 z m 556 316 q 556 250 534 190 q 512 130 474 84 q 436 39 386 12 q 336 -15 281 -15 q 222 -15 176 11 q 130 37 99 81 q 67 124 51 181 q 34 237 34 299 q 34 365 56 425 q 77 485 114 531 q 151 576 201 603 q 251 630 309 630 q 370 630 416 603 q 461 577 493 533 q 524 489 540 432 q 556 375 556 316 z"},"(":{"x_min":0,"x_max":317,"ha":317,"o":"m 282 -154 q 227 -128 185 -83 q 144 -37 115 23 q 87 83 73 155 q 59 227 59 304 q 59 384 75 459 q 91 534 120 597 q 149 660 191 707 q 232 755 282 781 l 298 759 q 266 733 238 690 q 209 647 188 590 q 167 534 155 465 q 142 396 142 318 q 142 247 152 179 q 163 111 183 52 q 203 -6 231 -54 q 260 -101 298 -132 z"},"C":{"x_min":0,"x_max":536,"ha":536,"o":"m 497 103 q 466 70 437 47 q 409 24 382 11 q 355 -3 330 -9 q 304 -15 279 -15 q 233 -15 190 6 q 146 26 111 65 q 77 104 55 159 q 34 215 34 286 q 34 364 58 428 q 82 491 122 536 q 163 581 216 605 q 270 630 330 630 q 383 630 423 616 q 462 602 488 581 q 491 579 486 571 q 482 564 474 555 q 467 545 458 536 q 450 527 444 521 l 427 524 q 402 547 368 562 q 333 576 289 576 q 272 576 253 570 q 233 564 213 551 q 193 538 174 516 q 156 495 141 465 q 127 435 118 395 q 110 355 110 304 q 110 239 129 190 q 147 142 177 109 q 207 77 243 60 q 279 44 314 44 q 340 44 383 62 q 425 80 479 125 q 481 124 484 121 q 487 118 489 114 q 492 111 494 108 q 496 104 497 103 z"},"W":{"x_min":0,"x_max":850,"ha":850,"o":"m 831 594 q 810 590 795 586 q 781 582 773 578 q 765 575 761 571 q 757 568 757 564 l 645 29 q 643 19 635 11 q 626 3 616 -2 q 606 -7 595 -10 q 584 -13 577 -15 l 418 461 l 278 29 q 274 19 266 11 q 258 4 247 -1 q 237 -6 225 -10 q 214 -13 204 -15 l 77 560 q 75 572 60 580 q 44 588 10 594 l 10 615 l 219 615 l 219 594 q 195 592 182 588 q 168 584 161 580 q 154 576 153 571 q 152 565 153 560 l 250 122 l 408 615 l 435 615 l 608 122 l 699 564 q 700 570 695 574 q 689 579 679 582 q 669 585 655 588 q 641 591 624 594 l 624 615 l 831 615 z"},"A":{"x_min":0,"x_max":595,"ha":595,"o":"m 370 261 l 284 512 l 201 261 z m 186 217 l 132 54 q 127 39 145 32 q 163 25 203 21 l 203 0 l 0 0 l 0 21 q 33 27 53 33 q 72 40 77 54 l 259 604 q 270 616 287 626 q 303 636 316 643 l 521 54 q 523 47 528 42 q 532 37 540 33 q 547 29 558 26 q 569 23 585 21 l 585 0 l 379 0 l 379 21 q 417 23 432 31 q 446 38 441 54 l 385 217 z"},"f":{"x_min":0,"x_max":311,"ha":311,"o":"m 399 710 q 399 706 392 698 q 385 690 375 682 q 365 674 355 667 q 344 659 337 656 q 325 666 313 674 q 301 681 290 686 q 279 691 270 693 q 260 696 254 696 q 241 696 227 687 q 212 679 200 656 q 188 634 179 595 q 171 557 171 496 l 171 454 l 297 454 l 311 440 q 307 433 300 425 q 293 417 287 411 q 280 404 274 398 q 268 393 263 391 q 252 396 231 402 q 210 408 171 408 l 171 50 q 171 47 176 44 q 181 41 193 38 q 206 35 225 31 q 244 26 273 21 l 273 0 l 29 0 l 29 21 q 63 27 80 35 q 98 44 98 50 l 98 408 l 32 408 l 22 421 l 60 454 l 98 454 l 98 469 q 98 527 105 566 q 113 605 127 633 q 140 660 158 678 q 175 696 195 712 q 208 723 224 731 q 239 739 255 745 q 270 751 284 754 q 298 757 307 757 q 322 757 338 751 q 354 745 368 738 q 381 730 390 722 q 399 714 399 710 z"},"Q":{"x_min":0,"x_max":600,"ha":600,"o":"m 480 307 q 480 341 474 374 q 468 407 457 436 q 445 466 429 491 q 413 516 392 534 q 372 553 347 563 q 323 574 295 574 q 251 574 217 555 q 183 537 159 503 q 135 469 123 421 q 110 373 110 313 q 110 258 125 209 q 140 161 165 124 q 190 87 224 65 q 257 44 295 44 q 335 44 369 61 q 403 78 428 111 q 453 144 466 193 q 480 243 480 307 z m 626 -57 q 614 -79 602 -95 q 590 -112 578 -124 q 566 -136 556 -143 q 545 -149 538 -149 q 508 -149 478 -134 q 449 -119 419 -98 q 390 -77 361 -53 q 332 -30 303 -13 q 292 -15 281 -15 q 227 -15 182 10 q 136 35 104 78 q 71 120 52 177 q 34 234 34 299 q 34 365 56 425 q 77 485 114 531 q 151 576 201 603 q 251 630 309 630 q 370 630 416 603 q 461 577 493 533 q 524 489 540 432 q 556 375 556 316 q 556 264 542 216 q 528 167 504 127 q 479 86 446 55 q 413 23 374 6 q 396 -6 418 -21 q 440 -35 462 -48 q 483 -61 503 -69 q 523 -78 541 -78 q 547 -78 553 -76 q 560 -74 568 -70 q 577 -65 587 -58 q 598 -51 613 -40 z"},"w":{"x_min":0,"x_max":706,"ha":706,"o":"m 696 433 q 681 430 672 427 q 663 423 658 420 q 653 417 651 413 q 648 409 647 403 l 539 29 q 536 18 528 10 q 519 3 509 -2 q 499 -7 489 -10 q 479 -13 472 -15 l 356 316 l 256 29 q 252 18 244 10 q 236 2 226 -3 q 216 -8 207 -10 q 197 -13 191 -15 l 63 403 q 59 422 10 433 l 10 454 l 198 454 l 198 433 q 174 431 161 427 q 148 424 142 420 q 136 416 136 412 q 136 407 137 403 l 229 93 l 349 454 l 383 454 l 510 93 l 594 403 q 597 414 584 421 q 571 428 537 433 l 537 454 l 696 454 z"},"-":{"x_min":0,"x_max":337,"ha":337,"o":""},"E":{"x_min":0,"x_max":496,"ha":496,"o":"m 466 119 q 462 77 456 46 q 450 14 446 0 l 24 0 l 24 21 q 58 28 76 36 q 95 44 95 51 l 95 564 q 95 570 77 579 q 60 587 24 594 l 24 615 l 418 615 l 434 603 q 433 590 431 575 q 429 560 426 545 q 423 530 420 516 q 417 502 414 493 l 392 493 q 391 516 388 531 q 385 546 380 555 q 375 564 368 568 q 361 571 352 571 l 173 571 l 173 359 l 371 359 l 384 345 q 380 338 374 331 q 369 323 363 315 q 356 308 350 301 q 344 295 339 291 q 332 298 323 303 q 314 308 303 312 q 292 315 278 316 q 263 318 242 318 l 173 318 l 173 75 q 173 68 177 62 q 180 57 191 52 q 202 48 221 46 q 241 44 273 44 l 336 44 q 358 44 374 46 q 390 49 402 57 q 415 66 425 83 q 435 99 445 128 z"},"s":{"x_min":0,"x_max":386,"ha":386,"o":"m 342 138 q 342 104 332 79 q 322 54 307 37 q 291 20 272 10 q 253 0 234 -6 q 216 -11 199 -13 q 183 -15 174 -15 q 150 -15 117 -6 q 84 3 52 21 q 48 22 47 37 q 46 51 47 70 q 47 89 50 108 q 52 127 55 138 l 76 133 q 77 112 87 94 q 97 76 113 63 q 129 50 151 42 q 173 34 198 34 q 216 34 230 40 q 245 45 256 55 q 267 65 272 80 q 278 94 278 111 q 278 130 268 146 q 257 161 240 173 q 223 186 201 197 q 180 208 157 219 q 137 229 118 241 q 99 253 84 268 q 69 282 60 300 q 51 318 51 342 q 51 372 63 396 q 75 419 95 436 q 116 452 142 460 q 168 469 196 469 q 211 469 229 466 q 248 463 265 458 q 283 454 299 447 q 314 440 324 431 q 327 428 325 418 q 323 408 318 396 q 313 383 308 373 q 303 362 300 358 l 281 362 q 257 397 232 411 q 207 425 183 425 q 167 425 154 419 q 142 414 133 406 q 124 397 119 387 q 114 376 114 366 q 114 351 124 338 q 133 326 148 315 q 163 304 182 294 q 202 284 222 273 q 243 262 265 250 q 286 238 303 222 q 320 206 331 186 q 342 166 342 138 z"},">":{"x_min":0,"x_max":439,"ha":439,"o":"m 409 305 q 407 296 403 281 q 398 267 394 256 l 42 125 l 30 137 q 31 142 33 148 q 35 155 37 162 q 39 168 41 175 q 43 181 45 185 l 314 286 l 38 388 l 30 407 q 41 416 52 424 q 62 432 71 439 l 398 317 z"},"l":{"x_min":0,"x_max":271,"ha":271,"o":"m 29 0 l 29 21 q 50 24 64 28 q 79 32 87 35 q 95 39 99 43 q 103 47 103 51 l 103 633 q 103 655 100 667 q 97 679 89 685 q 81 691 68 694 q 55 696 34 698 l 34 718 q 69 725 99 733 q 128 741 158 757 l 176 740 l 176 51 q 176 43 192 36 q 209 28 249 21 l 249 0 z"},"8":{"x_min":0,"x_max":469,"ha":469,"o":"m 134 464 q 134 442 145 427 q 155 411 173 398 q 190 386 213 375 q 236 365 260 354 q 296 380 311 406 q 326 432 326 458 q 326 483 318 502 q 311 521 297 533 q 283 545 264 551 q 244 557 220 557 q 198 557 182 549 q 166 541 156 527 q 145 514 140 497 q 134 480 134 464 z m 345 151 q 345 183 334 206 q 322 229 304 246 q 285 262 261 274 q 237 287 212 298 q 188 281 172 264 q 155 248 145 231 q 134 214 129 195 q 124 176 124 154 q 124 128 132 106 q 141 84 156 68 q 172 52 194 43 q 216 34 244 34 q 271 34 290 44 q 310 55 322 71 q 334 88 340 109 q 345 129 345 151 z m 423 172 q 423 134 407 100 q 391 66 363 41 q 335 15 299 0 q 262 -15 220 -15 q 178 -15 146 -2 q 114 11 91 32 q 69 54 57 81 q 46 109 46 139 q 46 166 55 190 q 64 215 81 237 q 98 259 121 279 q 145 298 174 314 q 153 324 135 336 q 116 348 102 363 q 87 379 79 399 q 71 419 71 447 q 71 480 84 509 q 98 538 121 559 q 145 580 177 591 q 208 603 245 603 q 282 603 310 593 q 339 583 359 566 q 378 549 389 525 q 399 501 399 473 q 399 453 391 434 q 384 416 371 399 q 357 382 339 367 q 321 351 299 336 q 324 324 346 310 q 369 295 386 276 q 403 256 413 231 q 423 206 423 172 z"},"\\":{"x_min":0,"x_max":469,"ha":469,"o":"m 425 -164 q 419 -162 411 -159 q 403 -156 396 -153 q 388 -149 381 -146 q 374 -142 369 -139 l 27 771 l 45 781 q 73 774 100 757 l 442 -151 z"},"e":{"x_min":0,"x_max":462,"ha":462,"o":"m 242 417 q 217 417 196 408 q 174 398 158 380 q 142 362 131 338 q 120 313 115 283 l 324 283 q 335 283 339 287 q 343 291 343 301 q 343 314 339 334 q 335 354 324 372 q 313 391 294 404 q 274 417 242 417 z m 423 272 q 414 262 399 254 q 385 246 369 239 l 112 239 q 113 201 123 167 q 133 132 152 106 q 170 80 197 64 q 224 49 257 49 q 272 49 286 51 q 301 53 317 60 q 334 66 354 80 q 375 93 402 115 q 408 112 413 105 q 417 99 420 95 q 387 60 363 38 q 338 16 316 4 q 294 -7 273 -11 q 252 -15 227 -15 q 189 -15 156 1 q 122 18 96 47 q 70 77 54 118 q 39 160 39 212 q 39 245 46 276 q 54 308 68 336 q 82 365 102 389 q 122 413 147 430 q 158 438 171 445 q 185 452 199 457 q 214 462 228 466 q 243 469 256 469 q 288 469 312 460 q 337 451 356 436 q 375 421 387 402 q 400 382 408 360 q 416 338 419 315 q 423 292 423 272 z"},"b":{"x_min":0,"x_max":508,"ha":508,"o":"m 464 240 q 464 212 457 182 q 449 152 435 124 q 421 96 400 70 q 380 45 354 26 q 328 7 296 -4 q 265 -15 229 -15 q 220 -15 203 -10 q 187 -6 166 1 q 145 9 120 21 q 95 32 68 47 l 68 633 q 68 655 66 667 q 63 680 57 686 q 50 692 37 694 q 25 696 5 698 l 5 718 q 37 726 66 734 q 96 742 124 757 l 128 752 q 131 749 134 747 q 138 744 142 740 l 142 355 q 166 384 190 406 q 214 427 237 441 q 259 455 278 462 q 297 469 311 469 q 344 469 372 453 q 400 438 421 408 q 441 378 452 336 q 464 293 464 240 z m 398 199 q 398 248 388 286 q 378 324 361 350 q 344 375 322 389 q 300 403 277 403 q 268 403 254 398 q 239 393 221 381 q 203 369 183 348 q 162 328 142 298 l 142 99 q 161 84 181 75 q 202 65 220 59 q 238 54 253 51 q 268 49 277 49 q 307 49 329 62 q 352 75 367 96 q 382 117 390 144 q 398 171 398 199 z"},"%":{"x_min":0,"x_max":690,"ha":690,"o":"m 583 141 q 583 175 577 201 q 571 226 561 243 q 550 260 537 268 q 524 276 510 276 q 499 276 489 269 q 478 262 470 248 q 461 233 456 212 q 451 191 451 162 q 451 127 457 101 q 462 75 471 58 q 481 42 494 33 q 507 25 523 25 q 535 25 546 32 q 557 40 565 54 q 573 69 578 91 q 583 112 583 141 z m 653 151 q 653 117 641 87 q 629 57 610 34 q 590 12 564 -1 q 538 -15 510 -15 q 481 -15 458 -1 q 434 12 417 34 q 399 57 390 87 q 380 117 380 151 q 380 185 392 215 q 404 245 424 267 q 443 290 469 302 q 495 315 523 315 q 552 315 576 302 q 600 290 617 267 q 634 245 644 215 q 653 185 653 151 z m 175 8 q 170 5 162 1 q 153 -2 144 -6 q 134 -9 124 -12 q 115 -15 109 -17 l 97 0 l 515 580 q 529 588 547 594 q 565 600 580 604 l 594 588 z m 240 428 q 240 463 234 488 q 228 514 218 530 q 208 547 194 555 q 181 563 167 563 q 156 563 146 556 q 135 549 127 535 q 118 521 113 499 q 108 478 108 449 q 108 414 113 388 q 119 362 128 345 q 138 329 151 320 q 165 312 180 312 q 192 312 203 319 q 214 327 222 341 q 230 356 235 378 q 240 399 240 428 z m 311 438 q 311 404 299 374 q 288 344 268 322 q 248 299 222 286 q 196 272 167 272 q 138 272 115 286 q 91 299 73 322 q 56 344 47 374 q 37 404 37 438 q 37 472 49 502 q 61 532 80 554 q 100 576 126 589 q 152 603 180 603 q 209 603 233 590 q 257 577 275 554 q 292 532 302 502 q 311 472 311 438 z"},"m":{"x_min":0,"x_max":803,"ha":803,"o":"m 579 0 l 579 21 q 614 30 631 37 q 647 44 647 51 l 647 309 q 647 339 644 359 q 641 378 634 390 q 627 401 617 406 q 606 410 592 410 q 576 410 558 401 q 540 392 521 375 q 501 358 482 334 q 463 310 444 280 l 444 51 q 444 44 459 37 q 475 31 513 21 l 513 0 l 303 0 l 303 21 q 338 30 355 37 q 371 44 371 51 l 371 309 q 371 339 368 359 q 365 378 359 390 q 352 401 342 406 q 331 410 316 410 q 283 410 246 376 q 210 342 168 280 l 168 51 q 168 43 187 36 q 205 28 237 21 l 237 0 l 27 0 l 27 21 q 59 29 77 36 q 95 42 95 51 l 95 347 q 95 367 94 378 q 92 389 85 395 q 78 401 64 404 q 50 407 27 410 l 27 430 q 45 433 61 437 q 77 441 91 446 q 105 451 118 457 q 131 462 144 469 l 161 452 l 167 340 q 188 372 211 396 q 233 420 255 437 q 277 453 298 461 q 318 469 336 469 q 359 469 379 463 q 399 458 413 444 q 428 431 436 409 q 444 387 444 354 l 444 344 q 465 375 487 398 q 509 421 531 437 q 552 453 573 461 q 594 469 612 469 q 635 469 655 462 q 675 456 689 443 q 704 430 712 409 q 720 389 720 362 l 720 51 q 720 44 735 37 q 750 31 789 21 l 789 0 z"},"#":{"x_min":0,"x_max":469,"ha":469,"o":"m 195 288 l 287 288 l 323 413 l 231 413 z m 394 469 l 467 469 l 479 457 q 477 446 473 434 q 468 421 464 413 l 377 413 l 342 288 l 416 288 l 426 275 q 424 265 420 253 q 417 240 413 232 l 326 232 l 283 83 q 274 76 263 71 q 251 66 238 62 l 226 72 l 271 232 l 179 232 l 136 83 q 127 76 116 71 q 105 66 92 62 l 80 72 l 125 232 l 53 232 l 42 244 q 45 254 49 266 q 53 278 57 288 l 141 288 l 177 413 l 106 413 l 94 425 q 97 436 101 448 q 105 459 109 469 l 193 469 l 233 611 q 244 619 255 623 q 266 626 276 631 l 291 620 l 247 469 l 339 469 l 379 611 q 390 619 401 623 q 412 626 423 631 l 437 620 z"},",":{"x_min":0,"x_max":229,"ha":229,"o":"m 190 34 q 190 15 183 -9 q 175 -33 161 -58 q 147 -83 127 -106 q 106 -130 81 -149 l 59 -132 q 73 -116 82 -102 q 92 -87 98 -71 q 104 -56 107 -38 q 110 -21 110 0 q 110 21 96 34 q 82 47 51 45 l 43 68 q 47 74 62 81 q 76 89 93 96 q 109 103 126 108 q 142 112 151 112 q 174 101 182 81 q 190 62 190 34 z"},"n":{"x_min":0,"x_max":552,"ha":552,"o":"m 327 0 l 327 21 q 362 30 379 37 q 396 44 396 51 l 396 309 q 396 339 392 357 q 389 376 381 387 q 374 397 362 401 q 350 405 333 405 q 318 405 299 398 q 281 391 260 375 q 238 358 215 332 q 192 306 168 268 l 168 51 q 168 43 187 36 q 205 28 237 21 l 237 0 l 27 0 l 27 21 q 59 29 77 36 q 95 42 95 51 l 95 347 q 95 366 94 377 q 92 389 86 395 q 79 401 65 404 q 52 407 27 410 l 27 430 q 60 435 88 445 q 117 455 144 469 l 161 452 l 167 330 q 188 363 214 388 q 240 414 266 432 q 292 450 317 459 q 342 469 361 469 q 382 469 401 462 q 421 456 436 443 q 451 430 460 409 q 469 389 469 362 l 469 51 q 469 44 484 37 q 499 31 537 21 l 537 0 z"},"h":{"x_min":0,"x_max":552,"ha":552,"o":"m 327 0 l 327 21 q 362 30 379 37 q 396 44 396 51 l 396 309 q 396 339 392 357 q 388 376 380 387 q 373 397 361 401 q 349 405 333 405 q 316 405 296 396 q 276 388 255 371 q 233 354 211 328 q 189 302 168 268 l 168 51 q 168 43 187 36 q 205 28 237 21 l 237 0 l 27 0 l 27 21 q 59 29 77 36 q 95 42 95 51 l 95 634 q 95 654 94 666 q 92 677 85 684 q 78 690 64 693 q 50 695 27 698 l 27 718 q 47 722 64 726 q 81 729 95 734 q 110 739 123 744 q 136 750 150 757 l 168 740 l 168 334 q 189 365 215 390 q 241 415 267 433 q 292 450 317 459 q 342 469 361 469 q 382 469 401 462 q 421 456 436 443 q 451 430 460 409 q 469 389 469 362 l 469 51 q 469 44 484 37 q 499 31 537 21 l 537 0 z"},"z":{"x_min":0,"x_max":442,"ha":442,"o":"m 405 121 q 405 105 404 88 q 404 70 403 54 q 402 37 401 23 q 400 9 399 0 l 50 0 l 37 22 l 308 410 l 139 410 q 131 410 123 407 q 115 404 108 396 q 100 388 94 374 q 87 359 82 337 l 58 343 l 67 462 q 78 459 86 457 q 95 456 105 455 q 114 454 125 454 l 393 454 l 404 433 l 132 44 l 338 44 q 350 44 360 63 q 371 82 382 126 z"},"B":{"x_min":0,"x_max":550,"ha":550,"o":"m 202 589 q 195 589 188 589 q 181 588 173 588 l 173 354 l 190 354 q 246 354 280 365 q 314 376 333 393 q 353 410 359 432 q 366 453 366 474 q 366 499 358 520 q 350 541 331 556 q 312 571 281 580 q 249 589 202 589 z m 254 317 q 230 317 211 315 q 191 313 173 310 l 173 51 q 173 47 178 43 q 186 41 197 39 q 208 37 219 36 q 230 35 241 35 q 252 34 262 34 q 297 34 326 43 q 354 52 374 68 q 395 84 405 107 q 416 130 416 157 q 416 184 406 212 q 397 241 377 264 q 357 288 327 302 q 296 317 254 317 z m 496 174 q 496 132 480 99 q 463 65 434 42 q 404 19 363 6 q 322 -7 273 -7 q 262 -7 247 -7 q 232 -6 215 -6 q 198 -5 180 -5 q 162 -4 145 -3 q 104 -2 60 0 l 24 0 l 24 21 q 58 28 76 36 q 95 44 95 51 l 95 581 q 77 579 59 576 q 41 573 24 570 l 20 601 q 39 606 64 611 q 89 616 117 620 q 145 625 174 627 q 203 630 229 630 q 278 630 317 621 q 357 612 385 595 q 412 578 427 553 q 442 529 442 498 q 442 445 417 407 q 392 370 349 353 q 380 347 407 331 q 434 315 454 291 q 474 268 485 238 q 496 208 496 174 z"},"K":{"x_min":0,"x_max":578,"ha":578,"o":"m 24 0 l 24 21 q 58 28 76 36 q 95 44 95 51 l 95 564 q 95 570 77 579 q 60 587 24 594 l 24 615 l 244 615 l 244 594 q 211 587 192 579 q 173 571 173 564 l 173 315 l 373 551 q 384 564 387 572 q 390 580 385 584 q 380 588 368 591 q 356 593 337 594 l 337 615 l 542 615 l 542 594 q 526 592 514 590 q 502 588 492 585 q 482 582 474 577 q 466 572 459 564 l 245 328 l 481 62 q 490 52 500 47 q 510 42 521 39 q 533 37 545 37 q 557 38 570 39 l 573 18 q 544 9 515 1 q 486 -7 463 -7 q 449 -7 438 -2 q 427 2 417 14 l 173 312 l 173 51 q 173 45 191 36 q 208 28 244 21 l 244 0 z"},"R":{"x_min":0,"x_max":561,"ha":561,"o":"m 24 0 l 24 21 q 58 28 76 36 q 95 44 95 51 l 95 581 q 78 578 60 575 q 42 573 24 570 l 20 601 q 43 606 66 612 q 90 617 115 621 q 141 625 169 627 q 197 630 229 630 q 286 630 328 619 q 370 607 397 587 q 425 567 439 540 q 453 513 453 482 q 453 447 443 418 q 433 390 414 368 q 396 346 371 330 q 345 314 315 305 l 463 68 q 470 57 479 51 q 487 44 498 41 q 508 38 521 38 q 534 38 551 39 l 556 18 q 524 7 495 0 q 466 -7 447 -7 q 433 -7 419 1 q 406 9 399 20 l 251 294 q 245 293 238 293 l 225 293 q 212 293 200 294 q 187 295 173 298 l 173 51 q 173 45 191 36 q 208 28 244 21 l 244 0 z m 211 589 q 192 589 173 587 l 173 337 q 187 335 196 334 q 206 334 217 334 q 294 334 335 368 q 377 402 377 467 q 377 494 367 516 q 358 539 338 555 q 317 571 286 580 q 254 589 211 589 z"},"T":{"x_min":0,"x_max":551,"ha":551,"o":"m 150 0 l 150 21 q 172 25 188 30 q 203 35 212 40 q 222 44 226 49 q 230 53 230 56 l 230 571 l 84 571 q 77 571 71 569 q 64 566 58 557 q 52 548 44 531 q 37 514 26 486 l 5 495 q 7 524 11 557 q 16 589 21 615 l 514 615 l 529 603 q 528 578 524 549 q 520 519 514 488 l 492 488 q 487 511 484 527 q 480 542 475 552 q 470 562 464 567 q 457 571 447 571 l 308 571 l 308 56 q 308 50 326 40 q 343 30 388 21 l 388 0 z"},"P":{"x_min":0,"x_max":523,"ha":523,"o":"m 24 0 l 24 21 q 58 28 76 36 q 95 44 95 51 l 95 581 q 77 579 59 576 q 42 573 24 570 l 20 601 q 43 607 71 612 q 99 618 128 622 q 158 625 189 628 q 219 630 249 630 q 302 630 344 619 q 387 607 417 585 q 447 563 463 531 q 479 499 479 457 q 479 423 470 396 q 460 368 445 346 q 429 324 408 308 q 388 292 365 282 q 343 271 321 266 q 299 261 280 261 q 234 261 201 276 l 190 312 q 210 303 229 301 q 248 298 265 298 q 288 298 312 307 q 336 315 357 333 q 377 351 391 376 q 404 402 404 437 q 404 477 389 506 q 375 535 350 553 q 325 571 292 580 q 259 589 221 589 q 209 589 197 589 q 185 588 173 588 l 173 51 q 173 48 177 44 q 181 41 191 37 q 200 33 217 29 q 233 25 259 21 l 259 0 z"},"|":{"x_min":0,"x_max":229,"ha":229,"o":"m 156 -172 q 147 -180 132 -187 q 117 -194 105 -198 l 88 -187 l 88 792 q 102 800 113 806 q 125 812 139 815 l 156 805 z"},"t":{"x_min":0,"x_max":344,"ha":344,"o":"m 330 57 q 306 40 283 26 q 259 13 238 4 q 217 -5 199 -10 q 181 -15 168 -15 q 151 -15 135 -8 q 120 -2 108 12 q 97 27 90 50 q 83 74 83 108 l 83 408 l 20 408 l 10 421 l 48 454 l 83 454 l 83 574 l 141 625 l 156 613 l 156 454 l 316 454 l 330 440 q 326 433 319 425 q 312 417 306 411 q 299 404 292 398 q 286 393 281 391 q 269 396 245 402 q 221 408 182 408 l 156 408 l 156 150 q 156 121 159 101 q 162 82 168 70 q 174 59 184 54 q 194 49 209 49 q 226 49 252 56 q 278 62 316 82 z"},"M":{"x_min":0,"x_max":806,"ha":806,"o":"m 757 594 q 743 594 725 590 q 708 585 691 577 l 696 51 q 696 45 714 36 q 731 28 767 21 l 767 0 l 544 0 l 544 21 q 578 28 599 36 q 620 44 620 51 l 616 508 l 402 0 l 378 0 l 161 504 l 156 51 q 156 45 174 36 q 192 28 227 21 l 227 0 l 29 0 l 29 21 q 63 28 82 36 q 100 44 100 51 l 105 575 q 86 585 68 590 q 49 594 34 594 l 34 615 l 174 615 q 179 615 182 614 q 186 612 189 608 q 192 604 196 595 q 199 587 205 574 l 399 134 l 586 574 q 592 589 596 597 q 600 605 603 609 q 606 613 610 614 q 613 615 617 615 l 757 615 z"},"g":{"x_min":0,"x_max":488,"ha":488,"o":"m 337 293 q 337 319 328 342 q 320 365 303 383 q 286 400 261 410 q 236 420 203 420 q 191 420 176 414 q 161 407 148 395 q 135 383 126 364 q 117 346 117 322 q 117 296 125 273 q 133 250 150 232 q 166 215 191 205 q 216 195 251 195 q 265 195 281 201 q 296 208 308 220 q 321 232 329 250 q 337 269 337 293 z m 253 -2 q 234 0 219 2 q 203 5 189 8 q 154 -11 134 -26 q 114 -42 104 -53 q 93 -65 91 -75 q 88 -85 88 -93 q 88 -113 102 -132 q 115 -150 138 -163 q 161 -177 191 -185 q 222 -193 255 -193 q 288 -193 314 -184 q 341 -175 360 -160 q 379 -145 390 -123 q 400 -102 400 -77 q 400 -63 394 -52 q 388 -40 371 -31 q 354 -21 326 -14 q 297 -7 253 -2 z m 405 313 q 405 275 388 244 q 372 213 344 191 q 317 169 282 156 q 248 144 212 144 l 210 144 q 187 125 178 112 q 169 99 169 96 q 169 90 174 84 q 179 79 193 73 q 207 68 231 63 q 256 58 294 54 q 347 48 382 36 q 417 24 437 9 q 458 -6 466 -24 q 474 -42 474 -59 q 474 -85 463 -110 q 453 -134 436 -154 q 418 -175 394 -191 q 370 -208 343 -220 q 315 -231 286 -238 q 257 -244 228 -244 q 205 -244 181 -241 q 156 -238 132 -231 q 108 -224 87 -214 q 66 -203 50 -188 q 34 -173 24 -155 q 15 -136 15 -112 q 15 -99 19 -85 q 24 -71 38 -55 q 52 -39 78 -21 q 103 -2 145 21 q 113 32 101 46 q 89 60 89 75 q 89 79 91 85 q 94 92 101 101 q 109 111 123 123 q 137 135 159 151 q 134 158 114 171 q 94 184 79 202 q 65 220 57 243 q 49 267 49 294 q 49 330 65 362 q 81 394 107 417 q 134 441 167 455 q 201 469 237 469 q 266 469 292 460 q 317 452 338 437 q 364 439 384 443 q 405 447 421 452 q 438 456 450 460 q 463 465 473 469 l 483 454 q 477 440 472 429 q 466 417 455 405 q 437 402 419 400 q 401 398 378 397 q 391 378 398 357 q 405 336 405 313 z"},"j":{"x_min":0,"x_max":259,"ha":259,"o":"m 173 48 q 173 -8 166 -47 q 159 -86 147 -114 q 134 -142 117 -161 q 100 -180 81 -195 q 67 -206 53 -215 q 38 -224 23 -230 q 9 -237 -4 -240 q -17 -244 -26 -244 q -42 -244 -56 -240 q -70 -237 -82 -231 q -93 -226 -100 -220 q -107 -214 -107 -210 q -107 -206 -100 -198 q -93 -191 -83 -183 q -74 -174 -63 -167 q -53 -160 -45 -156 q -30 -170 -13 -174 q 3 -178 22 -178 q 36 -178 50 -169 q 64 -160 75 -138 q 86 -115 93 -77 q 100 -38 100 21 l 100 327 q 100 352 99 367 q 98 382 91 391 q 85 399 71 403 q 57 407 32 410 l 32 430 q 52 433 68 438 q 84 442 98 447 q 113 451 126 457 q 140 462 155 469 l 173 469 z m 188 616 q 188 602 184 590 q 179 578 172 569 q 164 560 154 554 q 144 549 132 549 q 110 549 100 561 q 90 573 90 596 q 90 609 95 622 q 99 634 107 643 q 114 652 125 657 q 135 662 146 662 q 188 662 188 616 z"},"i":{"x_min":0,"x_max":271,"ha":271,"o":"m 34 0 l 34 21 q 67 28 85 36 q 103 44 103 51 l 103 327 q 103 352 102 367 q 101 383 94 391 q 88 400 74 404 q 60 408 34 410 l 34 430 q 49 433 66 437 q 83 441 100 446 q 116 451 131 457 q 146 463 159 469 l 176 469 l 176 51 q 176 45 192 36 q 208 28 244 21 l 244 0 z m 190 616 q 190 602 186 590 q 182 578 174 569 q 167 560 156 554 q 146 549 134 549 q 112 549 102 561 q 93 573 93 596 q 93 609 97 622 q 102 634 109 643 q 117 652 127 657 q 137 662 149 662 q 190 662 190 616 z"},"y":{"x_min":0,"x_max":493,"ha":493,"o":"m 483 433 q 468 430 459 427 q 450 424 444 420 q 438 417 435 412 q 432 407 429 400 l 266 -40 q 246 -94 220 -133 q 195 -171 168 -196 q 141 -221 114 -232 q 86 -244 62 -244 q 43 -244 28 -242 q 12 -239 1 -236 q -10 -232 -17 -227 q -23 -223 -23 -218 q -23 -215 -17 -207 q -11 -198 -2 -187 q 6 -177 16 -167 q 26 -157 34 -152 q 58 -166 81 -167 q 104 -168 122 -161 q 131 -158 143 -147 q 154 -137 166 -121 q 178 -105 190 -86 q 201 -66 210 -45 l 224 -11 l 64 400 q 60 414 47 421 q 34 428 10 433 l 10 454 l 198 454 l 198 433 q 179 431 167 428 q 155 426 149 422 q 142 418 141 413 q 140 408 143 400 l 263 89 l 376 400 q 378 407 377 412 q 375 417 368 421 q 362 425 350 427 q 338 430 320 433 l 320 454 l 483 454 z"},"@":{"x_min":0,"x_max":807,"ha":807,"o":"m 495 357 q 481 384 465 400 q 448 415 419 415 q 392 415 370 404 q 348 392 332 369 q 315 346 307 312 q 298 278 298 232 q 298 190 308 156 q 318 123 333 99 q 349 75 367 62 q 386 49 403 49 q 412 49 421 52 q 430 55 440 63 q 450 72 463 86 q 477 100 495 122 z m 773 268 q 773 226 763 188 q 754 151 738 120 q 721 88 700 63 q 679 39 656 21 q 633 4 609 -5 q 586 -15 565 -15 q 553 -15 542 -10 q 532 -4 523 7 q 514 18 508 36 q 501 54 498 79 q 478 51 463 33 q 447 15 433 4 q 418 -6 403 -10 q 388 -15 368 -15 q 343 -15 318 1 q 292 17 271 47 q 251 77 238 120 q 225 163 225 217 q 225 245 231 274 q 238 304 250 332 q 263 360 282 385 q 300 410 323 428 q 347 447 375 458 q 402 469 434 469 q 445 469 455 467 q 464 465 473 460 q 482 456 492 447 q 502 438 515 424 q 528 432 541 443 q 554 454 568 469 l 583 454 q 579 440 576 424 q 573 410 571 392 q 568 374 568 353 l 568 139 q 568 95 583 74 q 598 53 621 53 q 633 53 649 69 q 666 84 680 111 q 694 137 704 173 q 714 209 714 250 q 714 332 693 396 q 672 460 635 503 q 598 547 546 570 q 494 592 432 592 q 382 592 339 580 q 295 567 259 544 q 223 521 195 490 q 167 459 147 422 q 128 384 118 342 q 107 300 107 256 q 107 197 120 146 q 132 95 155 52 q 177 10 208 -23 q 239 -56 276 -78 q 313 -101 355 -113 q 397 -125 441 -125 q 482 -125 521 -116 q 561 -107 594 -95 q 628 -82 654 -67 q 680 -53 695 -40 l 708 -67 q 690 -85 662 -106 q 634 -126 597 -144 q 561 -161 515 -172 q 470 -183 417 -183 q 333 -183 263 -154 q 192 -125 142 -72 q 91 -19 62 57 q 34 133 34 227 q 34 282 49 335 q 64 388 91 435 q 119 482 157 522 q 195 562 241 590 q 288 619 341 635 q 394 651 451 651 q 524 651 583 626 q 643 602 685 553 q 727 505 750 433 q 773 362 773 268 z"},".":{"x_min":0,"x_max":229,"ha":229,"o":"m 180 60 q 180 43 175 29 q 170 14 161 3 q 152 -7 139 -13 q 127 -20 113 -20 q 86 -20 75 -5 q 64 9 64 35 q 64 52 69 66 q 75 81 84 92 q 93 103 106 109 q 118 115 132 115 q 156 115 168 101 q 180 86 180 60 z"},"p":{"x_min":0,"x_max":530,"ha":530,"o":"m 425 208 q 425 250 415 287 q 405 324 388 351 q 372 377 350 393 q 328 408 304 408 q 295 408 281 402 q 267 397 249 384 q 231 372 210 350 q 190 329 168 298 l 168 104 q 190 87 209 77 q 228 66 244 60 q 261 54 275 51 q 290 49 303 49 q 330 49 352 59 q 374 69 390 89 q 406 109 416 139 q 425 169 425 208 z m 491 240 q 491 212 483 182 q 476 152 463 124 q 451 96 433 70 q 416 45 395 26 q 374 7 351 -4 q 328 -15 304 -15 q 275 -15 239 1 q 203 18 168 48 l 168 -183 q 168 -191 187 -199 q 205 -207 251 -213 l 251 -234 l 27 -234 l 27 -213 q 59 -206 77 -198 q 95 -191 95 -183 l 95 347 q 95 365 93 377 q 91 389 84 396 q 77 403 64 406 q 50 409 27 410 l 27 430 q 43 433 59 437 q 74 441 88 446 q 102 451 116 456 q 130 462 144 469 l 161 452 l 166 355 q 190 384 215 406 q 239 427 262 441 q 284 455 303 462 q 323 469 337 469 q 370 469 398 453 q 427 438 447 408 q 468 378 479 336 q 491 293 491 240 z"},"X":{"x_min":0,"x_max":615,"ha":615,"o":"m 380 0 l 380 21 q 401 23 415 26 q 428 29 434 34 q 439 39 439 45 q 438 52 431 62 l 295 261 l 172 62 q 158 41 174 32 q 190 24 235 21 l 235 0 l 15 0 l 15 21 q 47 23 69 32 q 92 42 104 62 l 259 314 l 96 553 q 89 564 82 571 q 75 578 67 582 q 58 586 47 589 q 36 592 20 594 l 20 615 l 240 615 l 240 594 q 199 590 186 582 q 173 574 188 553 l 309 376 l 419 553 q 426 564 425 572 q 424 579 416 583 q 407 588 392 590 q 377 593 355 594 l 355 615 l 576 615 l 576 594 q 559 592 545 590 q 531 587 520 582 q 509 578 501 571 q 493 563 487 553 l 345 323 l 523 62 q 530 52 538 45 q 545 38 554 33 q 563 28 575 26 q 586 23 600 21 l 600 0 z"},"*":{"x_min":0,"x_max":447,"ha":447,"o":"m 239 580 l 366 676 q 376 669 390 660 q 404 651 412 643 l 413 623 l 254 554 l 401 491 q 400 479 399 462 q 399 446 395 435 l 377 424 l 239 527 l 258 369 q 252 366 246 363 q 240 359 233 356 q 226 353 219 350 q 212 347 207 346 l 188 355 l 208 527 l 81 431 q 76 435 69 439 q 62 443 56 447 q 50 452 44 456 q 39 460 35 464 l 34 485 l 193 553 l 46 616 q 46 622 47 630 q 47 637 47 645 q 48 653 49 660 q 50 667 52 672 l 69 683 l 208 580 l 189 739 q 194 742 201 745 q 208 749 215 752 q 222 755 229 758 q 236 761 241 762 l 259 752 z"},"Y":{"x_min":0,"x_max":594,"ha":594,"o":"m 176 0 l 176 21 q 220 30 238 40 q 256 49 256 56 l 256 262 q 238 302 215 345 q 192 388 168 428 q 144 469 122 504 q 99 539 82 562 q 78 567 72 572 q 66 577 58 581 q 49 584 36 587 q 22 589 2 589 l 0 610 q 29 614 58 617 q 86 620 107 620 q 129 620 145 601 q 163 578 184 546 q 205 514 226 478 q 247 442 267 405 q 287 367 304 332 l 435 562 q 442 575 430 582 q 418 589 381 594 l 381 615 l 574 615 l 574 594 q 541 588 523 581 q 505 575 498 562 l 334 264 l 334 56 q 334 53 338 49 q 342 45 352 40 q 361 35 377 30 q 392 25 415 21 l 415 0 z"},"c":{"x_min":0,"x_max":437,"ha":437,"o":"m 410 93 q 378 55 354 34 q 330 13 310 2 q 289 -9 270 -12 q 250 -15 227 -15 q 191 -15 157 1 q 124 17 97 47 q 71 77 55 120 q 39 163 39 217 q 39 270 58 315 q 78 361 111 395 q 145 429 190 449 q 235 469 288 469 q 304 469 321 466 q 338 463 353 458 q 369 453 382 446 q 395 439 403 430 q 404 424 401 414 q 399 403 395 391 q 390 379 385 368 q 379 357 375 350 l 357 355 q 353 364 344 374 q 335 384 322 394 q 308 403 288 409 q 269 415 244 415 q 218 415 195 404 q 171 392 153 369 q 134 346 123 312 q 112 278 112 232 q 112 190 125 156 q 137 123 158 99 q 179 75 206 62 q 233 49 262 49 q 276 49 288 50 q 299 51 313 58 q 327 64 345 77 q 364 89 391 113 z"},"!":{"x_min":0,"x_max":272,"ha":272,"o":"m 190 60 q 190 43 185 29 q 180 14 171 3 q 162 -7 150 -13 q 137 -20 123 -20 q 97 -20 85 -5 q 74 9 74 35 q 74 52 80 66 q 85 81 94 92 q 104 103 116 109 q 128 115 142 115 q 167 115 178 101 q 190 86 190 60 z m 159 190 q 150 183 143 179 q 135 175 123 171 l 109 181 l 86 683 q 104 695 125 705 q 146 716 162 723 l 183 710 z"},"/":{"x_min":0,"x_max":469,"ha":469,"o":"m 103 -139 q 98 -142 90 -146 q 83 -149 74 -153 q 65 -156 56 -159 q 48 -162 42 -164 l 24 -151 l 366 757 q 379 766 396 771 q 412 777 426 781 l 444 771 z"},"[":{"x_min":0,"x_max":308,"ha":308,"o":"m 288 -122 q 286 -131 282 -143 q 278 -155 274 -164 l 68 -164 l 68 781 l 271 781 l 287 769 q 285 756 281 744 q 277 731 274 725 l 137 725 l 137 -107 l 271 -107 z"},"6":{"x_min":0,"x_max":469,"ha":469,"o":"m 244 322 q 219 322 189 308 q 159 294 132 262 q 132 204 141 161 q 151 119 168 91 q 186 63 211 50 q 236 37 266 37 q 292 37 310 49 q 327 62 338 81 q 348 100 353 124 q 357 147 357 170 q 357 216 346 245 q 335 275 318 292 q 302 309 282 316 q 262 322 244 322 z m 430 201 q 430 178 425 153 q 420 128 409 104 q 399 81 384 59 q 368 38 348 21 q 328 5 302 -5 q 277 -15 247 -15 q 207 -15 172 3 q 137 21 110 53 q 84 85 69 131 q 54 176 54 231 q 54 300 73 363 q 93 426 134 477 q 175 528 238 563 q 300 598 385 610 l 394 581 q 336 568 292 541 q 247 515 215 479 q 183 444 163 403 q 144 361 136 317 q 153 334 171 345 q 189 356 206 363 q 223 370 238 373 q 253 376 264 376 q 304 376 334 364 q 365 352 386 329 q 408 306 419 274 q 430 241 430 201 z"},"r":{"x_min":0,"x_max":396,"ha":396,"o":"m 376 451 q 380 448 380 434 q 380 419 376 401 q 373 382 367 363 q 361 343 355 330 l 334 330 q 331 350 326 363 q 320 377 313 385 q 306 393 298 397 q 289 400 280 400 q 269 400 255 391 q 240 382 225 363 q 210 344 195 314 q 180 284 168 242 l 168 51 q 168 43 187 36 q 205 28 251 21 l 251 0 l 27 0 l 27 21 q 59 28 77 35 q 95 42 95 51 l 95 335 q 95 351 94 362 q 93 373 92 380 q 90 387 88 391 q 86 395 84 397 q 81 400 76 403 q 72 405 66 406 q 59 408 50 408 q 41 409 27 410 l 27 430 q 59 438 89 447 q 120 455 144 469 l 161 452 l 167 341 q 181 368 196 391 q 211 415 229 432 q 247 449 266 459 q 285 469 306 469 q 322 469 340 465 q 358 461 376 451 z"},"2":{"x_min":0,"x_max":469,"ha":469,"o":"m 401 0 l 62 0 l 48 36 q 106 104 149 155 q 192 207 223 247 q 254 287 274 317 q 294 347 306 370 q 317 394 322 413 q 326 433 326 451 q 326 474 321 493 q 315 513 304 528 q 292 542 273 551 q 254 559 228 559 q 208 559 191 549 q 174 540 162 525 q 150 510 144 491 q 137 473 137 456 q 128 452 122 448 q 115 444 108 441 q 102 438 94 435 q 85 433 74 432 l 61 447 q 61 472 78 500 q 95 527 124 550 q 152 573 188 588 q 224 603 261 603 q 291 603 316 595 q 342 586 361 570 q 380 553 391 527 q 402 500 402 465 q 402 443 396 421 q 389 399 376 373 q 362 348 341 317 q 320 287 290 249 q 259 211 220 165 q 180 118 130 59 l 334 59 q 342 59 349 63 q 355 66 361 73 q 366 79 369 86 q 373 94 375 103 q 381 122 384 146 l 408 140 z"},"{":{"x_min":0,"x_max":336,"ha":336,"o":"m 317 758 q 298 747 281 731 q 265 716 253 698 q 241 680 234 658 q 227 637 227 611 q 227 583 230 565 q 233 547 237 531 q 241 515 244 497 q 247 479 247 451 q 247 430 241 410 q 235 391 224 373 q 212 356 196 342 q 180 328 159 319 q 184 314 200 303 q 217 292 228 276 q 238 259 242 237 q 247 215 247 188 q 247 159 244 138 q 241 118 237 100 q 233 82 230 63 q 227 45 227 21 q 227 -6 231 -27 q 234 -47 244 -64 q 253 -81 270 -95 q 286 -110 312 -124 l 301 -154 q 260 -137 230 -119 q 201 -101 182 -78 q 164 -56 155 -28 q 146 0 146 35 q 146 64 149 83 q 152 102 156 119 q 160 136 163 156 q 166 176 166 206 q 166 246 146 266 q 126 286 90 286 l 80 286 q 77 286 74 286 q 72 286 69 285 q 65 284 58 283 l 50 309 q 107 324 137 354 q 166 385 166 421 q 166 441 165 455 q 163 469 161 481 q 159 492 156 502 q 153 512 151 523 q 149 535 147 549 q 146 563 146 583 q 146 616 157 645 q 168 674 188 699 q 209 724 238 744 q 268 765 304 781 z"},"9":{"x_min":0,"x_max":469,"ha":469,"o":"m 235 271 q 269 271 297 290 q 326 309 346 339 q 345 400 334 441 q 322 482 305 507 q 288 531 267 542 q 247 552 227 552 q 202 552 183 542 q 163 532 150 514 q 136 496 129 471 q 122 447 122 418 q 122 373 133 344 q 144 316 161 300 q 177 283 197 277 q 217 271 235 271 z m 425 357 q 425 283 405 219 q 385 155 344 106 q 303 57 240 24 q 178 -9 93 -21 l 84 8 q 149 24 196 50 q 243 77 274 112 q 306 146 323 189 q 339 232 344 282 q 331 267 315 255 q 300 243 283 235 q 266 227 248 222 q 230 217 214 217 q 175 217 144 230 q 114 243 93 266 q 71 289 60 320 q 49 352 49 388 q 49 413 55 438 q 62 464 74 488 q 87 512 105 533 q 123 554 145 569 q 167 585 192 594 q 218 603 247 603 q 281 603 313 589 q 345 575 370 545 q 395 515 410 468 q 425 422 425 357 z"}," ":{"x_min":0,"x_max":220,"ha":220,"o":""},"I":{"x_min":0,"x_max":298,"ha":298,"o":"m 34 0 l 34 21 q 67 28 86 36 q 105 44 105 51 l 105 564 q 105 570 87 579 q 69 587 34 594 l 34 615 l 254 615 l 254 594 q 221 587 202 579 q 183 571 183 564 l 183 51 q 183 45 201 36 q 219 28 254 21 l 254 0 z"},"H":{"x_min":0,"x_max":654,"ha":654,"o":"m 24 0 l 24 21 q 58 28 76 36 q 95 44 95 51 l 95 564 q 95 570 77 579 q 60 587 24 594 l 24 615 l 244 615 l 244 594 q 211 587 192 579 q 173 571 173 564 l 173 344 l 471 344 l 471 564 q 471 570 453 579 q 436 587 400 594 l 400 615 l 620 615 l 620 594 q 587 587 568 579 q 549 571 549 564 l 549 51 q 549 45 567 36 q 585 28 620 21 l 620 0 l 400 0 l 400 21 q 434 28 452 36 q 471 44 471 51 l 471 300 l 173 300 l 173 51 q 173 45 191 36 q 208 28 244 21 l 244 0 z"},"4":{"x_min":0,"x_max":469,"ha":469,"o":"m 286 508 l 104 225 l 286 225 z m 427 210 q 417 194 408 187 q 399 179 388 171 l 354 171 l 354 51 q 354 47 357 44 q 360 41 368 37 q 375 33 389 29 q 402 25 422 21 l 422 0 l 183 0 l 183 21 q 215 26 235 31 q 255 36 266 40 q 277 44 281 48 q 286 52 286 56 l 286 171 l 43 171 l 27 187 l 269 573 q 290 582 306 591 q 322 601 336 608 l 354 591 l 354 225 l 414 225 z"},"~":{"x_min":0,"x_max":488,"ha":488,"o":"m 464 378 q 454 354 438 328 q 422 303 403 281 q 384 260 362 247 q 339 233 316 233 q 295 233 272 245 q 250 257 226 272 q 202 287 179 299 q 156 311 135 311 q 111 311 91 292 q 70 273 50 232 l 24 245 q 34 269 50 295 q 66 320 85 342 q 104 363 126 376 q 148 390 172 390 q 194 390 218 378 q 242 366 265 351 q 288 336 310 324 q 333 312 352 312 q 375 312 396 331 q 417 350 438 390 z"},"D":{"x_min":0,"x_max":593,"ha":593,"o":"m 221 589 q 197 589 173 587 l 173 75 q 173 64 178 58 q 185 49 205 45 q 224 41 262 41 q 296 41 332 57 q 368 74 397 107 q 427 141 446 191 q 465 242 465 311 q 465 376 449 427 q 433 479 402 515 q 371 551 325 570 q 280 589 221 589 z m 548 330 q 548 269 536 221 q 523 173 502 136 q 481 99 454 73 q 426 48 396 31 q 365 15 333 8 q 302 0 273 0 l 24 0 l 24 21 q 58 28 76 36 q 95 44 95 51 l 95 580 q 76 578 58 575 q 41 573 24 570 l 20 601 q 42 606 70 612 q 98 617 129 621 q 160 625 192 628 q 224 630 253 630 q 321 630 375 610 q 430 589 469 551 q 507 512 528 457 q 548 401 548 330 z"},"^":{"x_min":0,"x_max":492,"ha":492,"o":"m 443 310 q 431 299 419 291 q 408 284 391 276 l 373 289 l 235 642 l 113 310 q 107 305 101 300 q 94 295 86 290 q 79 286 72 282 q 65 278 60 276 l 49 289 l 206 714 q 212 720 220 726 q 229 732 238 738 q 247 744 255 749 q 264 753 271 757 z"},"0":{"x_min":0,"x_max":469,"ha":469,"o":"m 352 276 q 352 343 342 394 q 331 444 313 478 q 296 512 273 530 q 250 547 225 547 q 200 547 180 533 q 160 520 146 492 q 132 464 125 420 q 117 376 117 315 q 117 248 127 197 q 137 146 154 111 q 170 77 194 59 q 217 42 244 42 q 270 42 290 55 q 310 68 323 97 q 337 125 345 170 q 352 214 352 276 z m 432 294 q 432 231 417 175 q 402 119 375 77 q 348 35 310 10 q 271 -15 225 -15 q 179 -15 144 10 q 108 35 85 77 q 61 119 49 175 q 37 231 37 294 q 37 357 52 413 q 67 469 94 511 q 122 554 160 578 q 198 603 244 603 q 291 603 326 579 q 361 554 385 512 q 408 470 420 414 q 432 357 432 294 z"},"F":{"x_min":0,"x_max":478,"ha":478,"o":"m 24 0 l 24 21 q 58 28 76 36 q 95 44 95 51 l 95 564 q 95 570 77 579 q 60 587 24 594 l 24 615 l 423 615 l 438 603 q 438 590 436 575 q 434 560 431 545 q 428 530 425 516 q 422 502 419 493 l 396 493 q 395 516 392 531 q 390 546 385 555 q 379 564 372 568 q 365 571 356 571 l 173 571 l 173 359 l 356 359 l 370 345 q 366 338 360 331 q 354 323 348 315 q 341 308 335 301 q 329 295 324 291 q 317 298 309 303 q 300 308 289 312 q 278 315 263 316 q 249 318 228 318 l 173 318 l 173 51 q 173 45 192 38 q 211 30 259 21 l 259 0 z"},"`":{"x_min":0,"x_max":319,"ha":319,"o":"m 214 526 q 209 522 202 518 q 195 514 187 511 l 15 695 l 25 715 q 30 716 40 718 q 49 720 60 722 q 70 724 81 725 q 91 727 97 727 z"},"k":{"x_min":0,"x_max":500,"ha":500,"o":"m 27 0 l 27 21 q 59 29 77 36 q 95 42 95 51 l 95 633 q 95 655 93 667 q 90 680 82 686 q 75 692 61 694 q 48 696 27 698 l 27 718 q 61 725 93 734 q 125 743 150 757 l 168 740 l 168 259 l 319 390 q 335 404 338 413 q 342 421 337 426 q 333 430 322 432 q 311 433 298 433 l 298 454 l 483 454 l 483 433 q 461 431 443 425 q 425 419 405 403 l 238 270 l 422 54 q 429 46 436 41 q 443 36 452 33 q 461 30 472 30 q 483 29 497 30 l 500 9 q 486 5 472 3 q 458 0 446 -1 q 434 -3 425 -4 q 415 -5 410 -5 q 390 -5 377 1 q 365 7 354 21 l 168 255 l 168 51 q 168 47 170 44 q 172 41 177 38 q 183 35 193 31 q 204 27 222 21 l 222 0 z"},"u":{"x_min":0,"x_max":530,"ha":530,"o":"m 522 40 q 504 28 487 18 q 471 8 457 1 q 442 -6 432 -10 q 421 -15 415 -15 q 398 -15 387 8 q 376 31 374 81 q 343 51 318 32 q 293 13 272 3 q 250 -7 233 -11 q 215 -15 199 -15 q 176 -15 155 -8 q 134 -2 118 15 q 102 32 93 61 q 83 90 83 136 l 83 347 q 83 371 82 384 q 80 396 74 403 q 68 410 55 412 q 42 415 20 417 l 20 437 q 38 438 53 441 q 68 444 83 448 q 97 452 112 457 q 126 462 143 469 l 156 450 l 156 163 q 156 129 161 106 q 167 83 176 69 q 186 56 199 50 q 213 44 231 44 q 247 44 263 49 q 279 53 297 63 q 314 73 333 89 q 352 105 374 128 l 374 347 q 374 369 371 382 q 369 396 362 403 q 354 410 341 413 q 328 416 305 417 l 305 437 q 340 441 373 450 q 405 459 432 469 l 447 450 l 447 124 q 447 94 449 75 q 451 56 458 51 q 464 47 478 49 q 492 51 517 62 z"},"]":{"x_min":0,"x_max":308,"ha":308,"o":"m 37 -164 l 21 -149 q 22 -138 26 -126 q 30 -114 33 -107 l 171 -107 l 171 725 l 37 725 l 20 738 q 21 749 26 761 q 30 773 33 781 l 239 781 l 239 -164 z"},"U":{"x_min":0,"x_max":654,"ha":654,"o":"m 623 594 q 589 587 571 579 q 552 571 552 564 l 552 256 q 552 192 536 142 q 521 91 491 57 q 462 22 420 4 q 378 -15 325 -15 q 275 -15 233 -1 q 190 13 160 42 q 129 70 112 114 q 95 157 95 217 l 95 564 q 95 570 77 579 q 60 587 24 594 l 24 615 l 244 615 l 244 594 q 211 587 192 579 q 173 571 173 564 l 173 241 q 173 194 184 157 q 195 120 217 94 q 239 69 271 55 q 302 42 344 42 q 379 42 406 58 q 433 75 451 103 q 469 130 479 165 q 488 200 488 236 l 488 564 q 488 570 470 579 q 453 587 417 594 l 417 615 l 623 615 z"},"o":{"x_min":0,"x_max":503,"ha":503,"o":"m 388 222 q 388 261 375 296 q 363 331 343 357 q 323 384 297 399 q 272 415 247 415 q 210 415 185 401 q 159 387 144 362 q 128 337 122 304 q 115 270 115 231 q 115 192 128 157 q 142 123 163 96 q 184 70 208 54 q 233 39 256 39 q 291 39 315 52 q 340 65 356 89 q 373 113 380 146 q 388 180 388 222 z m 464 237 q 464 204 456 173 q 447 142 433 114 q 418 86 397 62 q 377 39 352 21 q 328 4 300 -5 q 272 -15 242 -15 q 196 -15 158 3 q 121 21 94 51 q 68 82 53 125 q 39 167 39 217 q 39 249 47 280 q 55 312 70 340 q 84 368 104 391 q 125 415 149 432 q 174 449 202 459 q 231 469 261 469 q 307 469 344 451 q 382 434 408 403 q 435 372 449 329 q 464 287 464 237 z"},"N":{"x_min":0,"x_max":649,"ha":649,"o":"m 24 0 l 24 21 q 61 25 78 35 q 95 44 95 51 l 95 561 q 79 576 61 584 q 43 591 24 594 l 24 615 l 128 615 q 135 615 140 614 q 145 613 149 609 q 154 605 160 597 q 166 590 175 577 l 496 135 l 496 564 q 496 570 480 579 q 464 589 425 594 l 425 615 l 625 615 l 625 594 q 590 589 572 580 q 554 571 554 564 l 554 -15 q 530 -12 516 -5 q 502 2 496 10 l 154 485 l 154 51 q 154 45 170 36 q 187 26 225 21 l 225 0 z"},"+":{"x_min":0,"x_max":410,"ha":410,"o":"m 233 115 q 223 110 211 106 q 200 103 189 100 l 177 111 l 177 248 l 42 248 l 30 259 q 32 269 36 280 q 41 292 45 301 l 177 301 l 177 435 q 186 438 198 442 q 210 447 221 449 l 233 438 l 233 301 l 368 301 l 380 290 q 377 280 373 268 q 369 256 365 248 l 233 248 z"},"G":{"x_min":0,"x_max":583,"ha":583,"o":"m 509 580 q 512 578 508 571 q 503 563 495 555 q 487 546 478 537 q 468 529 462 523 l 446 526 q 430 541 413 551 q 396 561 377 566 q 358 572 337 574 q 316 576 292 576 q 280 576 261 571 q 243 565 223 552 q 203 540 183 520 q 163 500 146 470 q 130 440 120 401 q 110 362 110 311 q 110 243 128 193 q 146 143 175 110 q 205 77 241 60 q 278 44 315 44 q 351 44 381 51 q 411 58 435 71 l 435 237 q 435 242 430 247 q 425 252 414 257 q 402 262 383 267 q 364 272 334 277 l 334 298 l 559 298 l 559 277 q 531 270 520 259 q 508 248 508 237 l 508 75 q 472 45 443 28 q 415 10 391 1 q 367 -9 345 -12 q 324 -15 302 -15 q 252 -15 205 4 q 157 22 119 59 q 81 97 58 153 q 34 208 34 284 q 34 365 60 429 q 85 494 130 538 q 174 583 234 606 q 293 630 360 630 q 376 630 395 626 q 415 623 435 617 q 455 610 474 601 q 493 592 509 580 z"},"q":{"x_min":0,"x_max":515,"ha":515,"o":"m 238 49 q 254 49 271 56 q 287 62 302 73 q 318 84 333 99 q 349 113 364 127 l 364 356 q 348 384 318 400 q 289 415 254 415 q 227 415 201 404 q 176 392 156 369 q 136 346 124 312 q 112 278 112 232 q 112 190 124 156 q 136 123 155 99 q 173 75 196 62 q 218 49 238 49 z m 281 -234 l 281 -213 q 327 -207 345 -199 q 364 -191 364 -183 l 364 81 q 345 59 327 41 q 309 23 290 11 q 271 -1 249 -8 q 228 -15 203 -15 q 176 -15 147 1 q 118 17 94 47 q 70 77 54 120 q 39 163 39 217 q 39 260 53 296 q 66 332 86 360 q 106 388 128 408 q 151 427 168 437 q 196 452 223 460 q 250 469 269 469 q 282 469 295 467 q 309 465 322 460 q 336 456 351 447 q 365 438 382 423 q 389 428 397 434 q 405 440 412 446 q 419 452 426 458 q 433 464 437 469 l 452 454 q 448 440 444 424 q 441 410 439 391 q 437 372 437 350 l 437 -183 q 437 -191 452 -199 q 467 -207 505 -213 l 505 -234 z"},"d":{"x_min":0,"x_max":520,"ha":520,"o":"m 513 41 q 491 26 473 15 q 456 5 443 -2 q 430 -8 421 -11 q 412 -15 405 -15 q 389 -15 378 7 q 368 29 365 83 q 346 60 328 42 q 310 24 290 11 q 271 -1 250 -8 q 228 -15 203 -15 q 176 -15 147 1 q 118 17 94 47 q 70 77 54 120 q 39 163 39 217 q 39 245 47 274 q 54 304 68 332 q 83 360 103 385 q 124 410 149 428 q 174 447 205 458 q 235 469 269 469 q 292 469 315 463 q 337 458 364 438 l 364 622 q 364 649 362 665 q 361 681 354 689 q 347 698 333 701 q 319 704 293 706 l 293 725 q 333 730 365 740 q 396 749 422 757 l 437 742 l 437 124 q 437 107 438 95 q 438 83 440 74 q 441 66 443 61 q 445 55 448 52 q 453 46 465 49 q 478 51 507 62 z m 364 127 l 364 356 q 348 384 318 400 q 289 415 254 415 q 223 415 197 404 q 171 392 152 369 q 133 346 123 312 q 112 278 112 232 q 112 190 124 156 q 136 123 155 99 q 173 75 196 62 q 218 49 238 49 q 254 49 271 56 q 287 62 302 73 q 318 84 333 99 q 349 113 364 127 z"},"1":{"x_min":0,"x_max":469,"ha":469,"o":"m 83 0 l 83 26 q 121 30 146 36 q 172 42 187 47 q 202 53 208 59 q 215 64 215 70 l 215 459 q 215 479 213 489 q 212 500 206 507 q 203 510 195 512 q 187 514 171 513 q 156 513 133 510 q 110 507 78 500 l 68 525 q 88 531 116 541 q 145 551 173 563 q 202 575 228 587 q 254 599 270 608 l 288 591 l 288 70 q 288 65 293 59 q 299 54 312 48 q 326 42 350 36 q 374 30 410 26 l 410 0 z"},"5":{"x_min":0,"x_max":469,"ha":469,"o":"m 408 200 q 408 158 395 119 q 382 80 358 50 q 333 21 297 3 q 261 -15 215 -15 q 169 -15 125 2 q 81 19 38 58 l 55 91 q 81 73 102 62 q 124 51 142 45 q 160 39 175 36 q 190 34 204 34 q 236 34 260 46 q 283 59 299 79 q 314 99 322 125 q 330 151 330 179 q 330 212 322 240 q 314 267 298 286 q 281 306 256 316 q 231 327 197 327 q 187 327 173 325 q 160 322 146 317 q 131 312 117 305 q 103 298 90 288 l 67 304 q 70 322 74 345 q 78 368 82 394 q 86 420 90 447 q 94 474 98 500 q 101 525 104 548 q 106 571 107 588 l 320 588 q 334 588 345 590 q 355 591 363 593 q 372 595 379 597 l 393 583 q 388 575 381 567 q 374 558 366 550 q 359 542 352 536 q 345 529 339 525 l 150 525 q 149 511 146 489 q 144 466 141 443 q 138 420 134 399 q 131 379 129 368 q 148 374 175 377 q 201 381 226 381 q 271 381 304 366 q 338 351 361 326 q 384 301 396 269 q 408 236 408 200 z"}}}
